<svg width="54" height="54" viewBox="0 0 54 54" fill="none" xmlns="http://www.w3.org/2000/svg">
<path d="M30.8483 18.8006C31.2541 19.2151 31.3396 19.7332 31.1687 20.0233C30.9764 20.3549 30.7415 20.5207 30.3783 20.5207C30.2288 20.5207 29.5239 20.5 29.1394 20.728C28.7122 20.9767 27.7937 21.4119 26.7256 21.3083C26.0207 21.2461 25.1022 20.5622 24.675 21.0596C24.4614 21.3083 24.1196 22.2409 24.0983 23.5465C24.0769 24.4584 24.2264 27.6707 23.7992 29.7224C23.7778 29.8675 23.906 30.0126 24.0555 30.0126C24.4614 29.9918 24.9313 29.826 25.3372 28.8727C27.4946 23.7538 36.338 24.0853 37.641 29.8468C38.1323 31.9607 38.7945 36.3128 34.501 37.5563C31.3182 38.4682 26.8324 37.7221 24.44 37.5356C22.9448 37.4112 17.5191 37.1833 17.0492 34.2404C16.8997 33.3907 17.1133 31.9192 17.391 29.9711C17.4764 29.3079 17.69 27.4427 18.3949 25.391C18.993 23.733 19.8475 22.1994 20.9155 20.4793C21.3 19.8575 21.7699 18.842 23.0089 17.5986C24.7391 15.8577 26.8538 14.6557 28.0714 14.1168C28.9685 13.7231 29.4812 14.407 29.7161 14.9458C29.9084 15.4018 31.0192 16.8525 31.5318 17.5364C31.6813 17.7436 31.7881 18.1996 31.4677 18.4068C31.1687 18.6348 30.8483 18.8006 30.8483 18.8006Z" fill="white"/>
</svg>
