<svg width="104" height="50" viewBox="0 0 104 50" fill="none" xmlns="http://www.w3.org/2000/svg">
<path d="M5.56822 19.9198C4.19222 19.9198 3.09622 19.6638 2.28022 19.1518C1.46422 18.6398 0.880219 17.9038 0.528219 16.9438C0.176219 15.9838 0.000218809 14.8478 0.000218809 13.5358V6.26376C0.000218809 4.95176 0.176219 3.83176 0.528219 2.90376C0.880219 1.95976 1.46422 1.23976 2.28022 0.743761C3.09622 0.24776 4.19222 -0.000239849 5.56822 -0.000239849C6.97622 -0.000239849 8.08022 0.24776 8.88022 0.743761C9.69622 1.23976 10.2802 1.95976 10.6322 2.90376C11.0002 3.83176 11.1842 4.95176 11.1842 6.26376V13.5598C11.1842 14.8558 11.0002 15.9838 10.6322 16.9438C10.2802 17.8878 9.69622 18.6238 8.88022 19.1518C8.08022 19.6638 6.97622 19.9198 5.56822 19.9198ZM5.56822 17.3038C6.16022 17.3038 6.59222 17.1758 6.86422 16.9198C7.15222 16.6638 7.34422 16.3118 7.44022 15.8638C7.53622 15.4158 7.58422 14.9278 7.58422 14.3998V5.44776C7.58422 4.90376 7.53622 4.41576 7.44022 3.98376C7.34422 3.55176 7.15222 3.21576 6.86422 2.97576C6.59222 2.71976 6.16022 2.59176 5.56822 2.59176C5.00822 2.59176 4.58422 2.71976 4.29622 2.97576C4.00822 3.21576 3.81622 3.55176 3.72022 3.98376C3.62422 4.41576 3.57622 4.90376 3.57622 5.44776V14.3998C3.57622 14.9278 3.61622 15.4158 3.69622 15.8638C3.79222 16.3118 3.98422 16.6638 4.27222 16.9198C4.56022 17.1758 4.99222 17.3038 5.56822 17.3038ZM12.7077 19.7998V17.4238C13.2037 17.4238 13.6037 17.3358 13.9077 17.1598C14.2117 16.9838 14.4517 16.6878 14.6277 16.2718C14.8037 15.8398 14.9397 15.2638 15.0357 14.5438C15.1317 13.8078 15.2197 12.8878 15.2997 11.7838L15.6837 5.78376H23.7477V19.6558H20.4837V8.08776H18.4917L18.2037 12.1678C18.1077 13.6878 17.9637 14.9438 17.7717 15.9358C17.5957 16.9278 17.3237 17.7038 16.9557 18.2638C16.6037 18.8238 16.1237 19.2238 15.5157 19.4638C14.9077 19.6878 14.1317 19.7998 13.1877 19.7998H12.7077ZM30.4519 19.8718C29.4119 19.8718 28.5639 19.6798 27.9079 19.2958C27.2519 18.8958 26.7639 18.3198 26.4439 17.5678C26.1399 16.7998 25.9879 15.8798 25.9879 14.8078V10.6318C25.9879 9.52776 26.1399 8.59976 26.4439 7.84776C26.7639 7.09576 27.2519 6.52776 27.9079 6.14376C28.5799 5.75976 29.4279 5.56776 30.4519 5.56776C31.5559 5.56776 32.4119 5.77576 33.0199 6.19176C33.6439 6.60776 34.0839 7.21576 34.3399 8.01576C34.6119 8.79976 34.7479 9.75976 34.7479 10.8958V12.8638H29.2279V15.5998C29.2279 16.0478 29.2679 16.4158 29.3479 16.7038C29.4439 16.9918 29.5879 17.1998 29.7799 17.3278C29.9719 17.4558 30.2039 17.5198 30.4759 17.5198C30.7639 17.5198 30.9959 17.4558 31.1719 17.3278C31.3479 17.1838 31.4759 16.9838 31.5559 16.7278C31.6359 16.4558 31.6759 16.1198 31.6759 15.7198V14.5678H34.7239V15.5038C34.7239 16.9118 34.3719 17.9918 33.6679 18.7438C32.9639 19.4958 31.8919 19.8718 30.4519 19.8718ZM29.2279 11.2558H31.6759V9.93576C31.6759 9.45576 31.6359 9.07176 31.5559 8.78376C31.4759 8.47976 31.3479 8.26376 31.1719 8.13576C30.9959 7.99176 30.7479 7.91976 30.4279 7.91976C30.1399 7.91976 29.9079 7.99176 29.7319 8.13576C29.5559 8.27976 29.4279 8.51976 29.3479 8.85576C29.2679 9.19176 29.2279 9.67176 29.2279 10.2958V11.2558ZM36.9628 19.6558V5.78376H40.2268V11.4478H40.8748L43.2268 5.78376H46.6828L43.8748 12.4078L46.7308 19.6558H43.3228L40.8748 13.3438H40.2268V19.6558H36.9628ZM52.3185 19.8718C51.2465 19.8718 50.3825 19.6718 49.7265 19.2718C49.0865 18.8558 48.6145 18.2718 48.3105 17.5198C48.0225 16.7518 47.8785 15.8478 47.8785 14.8078V10.6318C47.8785 9.55976 48.0225 8.64776 48.3105 7.89576C48.6145 7.14376 49.0945 6.56776 49.7505 6.16776C50.4065 5.76776 51.2625 5.56776 52.3185 5.56776C53.3105 5.56776 54.1185 5.72776 54.7425 6.04776C55.3825 6.35176 55.8465 6.82376 56.1345 7.46376C56.4225 8.08776 56.5665 8.87976 56.5665 9.83976V10.9918H53.4945V9.76776C53.4945 9.28776 53.4545 8.91176 53.3745 8.63976C53.3105 8.35176 53.1905 8.15176 53.0145 8.03976C52.8385 7.91176 52.6065 7.84776 52.3185 7.84776C52.0305 7.84776 51.7985 7.92776 51.6225 8.08776C51.4465 8.23176 51.3185 8.47176 51.2385 8.80776C51.1745 9.14376 51.1425 9.60776 51.1425 10.1998V15.2878C51.1425 16.1838 51.2385 16.7918 51.4305 17.1118C51.6225 17.4158 51.9265 17.5678 52.3425 17.5678C52.6625 17.5678 52.9025 17.4958 53.0625 17.3518C53.2385 17.2078 53.3505 16.9998 53.3985 16.7278C53.4625 16.4398 53.4945 16.0958 53.4945 15.6958V14.2078H56.5665V15.5278C56.5665 16.4558 56.4145 17.2478 56.1105 17.9038C55.8225 18.5598 55.3585 19.0558 54.7185 19.3918C54.0945 19.7118 53.2945 19.8718 52.3185 19.8718ZM61.0168 19.8718C60.3928 19.8718 59.8488 19.7118 59.3848 19.3918C58.9368 19.0558 58.5928 18.6398 58.3528 18.1438C58.1128 17.6318 57.9928 17.1038 57.9928 16.5598C57.9928 15.6958 58.1528 14.9678 58.4728 14.3758C58.7928 13.7838 59.2168 13.2878 59.7448 12.8878C60.2888 12.4878 60.8888 12.1438 61.5448 11.8558C62.2168 11.5518 62.9048 11.2798 63.6088 11.0398V9.83976C63.6088 9.43976 63.5768 9.10376 63.5128 8.83176C63.4648 8.55976 63.3608 8.35176 63.2008 8.20776C63.0408 8.06376 62.8088 7.99176 62.5048 7.99176C62.2168 7.99176 61.9848 8.05576 61.8088 8.18376C61.6488 8.31176 61.5288 8.49576 61.4488 8.73576C61.3848 8.95976 61.3528 9.22376 61.3528 9.52776L61.3048 10.3678L58.1848 10.2478C58.2488 8.64776 58.6488 7.47176 59.3848 6.71976C60.1208 5.95176 61.2488 5.56776 62.7688 5.56776C64.1608 5.56776 65.1768 5.95176 65.8168 6.71976C66.4568 7.48776 66.7768 8.52776 66.7768 9.83976V16.2478C66.7768 16.7598 66.7848 17.2238 66.8008 17.6398C66.8328 18.0558 66.8648 18.4318 66.8968 18.7678C66.9448 19.1038 66.9848 19.3998 67.0168 19.6558H64.0648C64.0168 19.3358 63.9608 18.9758 63.8968 18.5758C63.8328 18.1598 63.7848 17.8558 63.7528 17.6638C63.5928 18.2238 63.2888 18.7358 62.8408 19.1998C62.3928 19.6478 61.7848 19.8718 61.0168 19.8718ZM62.2168 17.4478C62.4248 17.4478 62.6168 17.3998 62.7928 17.3038C62.9688 17.1918 63.1288 17.0638 63.2728 16.9198C63.4168 16.7758 63.5288 16.6478 63.6088 16.5358V12.6718C63.2408 12.8798 62.8968 13.0878 62.5768 13.2958C62.2728 13.5038 62.0088 13.7358 61.7848 13.9918C61.5608 14.2318 61.3848 14.4958 61.2568 14.7838C61.1288 15.0718 61.0648 15.4078 61.0648 15.7918C61.0648 16.3038 61.1608 16.7118 61.3528 17.0158C61.5608 17.3038 61.8488 17.4478 62.2168 17.4478ZM69.1425 19.6558V5.78376H72.4065V11.3758H75.2145V5.78376H78.4785V19.6558H75.2145V13.6798H72.4065V19.6558H69.1425ZM80.5945 23.3518V17.6158C81.0905 17.3118 81.5305 16.9358 81.9145 16.4878C82.3145 16.0238 82.6585 15.4558 82.9465 14.7838C83.2345 14.1118 83.4585 13.3038 83.6185 12.3598C83.7945 11.4158 83.9065 10.2958 83.9545 8.99976L84.1705 5.78376H91.1545V17.5438H92.9065V23.3518H90.6265L90.3865 19.6558H83.0905L82.8745 23.3518H80.5945ZM83.9785 17.5438H88.1065V7.87176H86.6185L86.4505 9.74376C86.4185 11.0078 86.3305 12.0798 86.1865 12.9598C86.0585 13.8398 85.8825 14.5758 85.6585 15.1678C85.4345 15.7598 85.1785 16.2398 84.8905 16.6078C84.6025 16.9758 84.2985 17.2878 83.9785 17.5438ZM94.6894 24.2158V5.78376H97.9534V6.83976C98.3534 6.45576 98.7934 6.15176 99.2734 5.92776C99.7534 5.68776 100.257 5.56776 100.785 5.56776C101.409 5.56776 101.921 5.71176 102.321 5.99976C102.721 6.28776 103.033 6.67176 103.257 7.15176C103.481 7.61576 103.633 8.11976 103.713 8.66376C103.809 9.19176 103.857 9.70376 103.857 10.1998V14.9038C103.857 15.8158 103.745 16.6478 103.521 17.3998C103.313 18.1518 102.969 18.7518 102.489 19.1998C102.025 19.6478 101.401 19.8718 100.617 19.8718C100.121 19.8718 99.6494 19.7518 99.2014 19.5118C98.7694 19.2718 98.3534 18.9678 97.9534 18.5998V24.2158H94.6894ZM99.3934 17.5918C99.7454 17.5918 100.001 17.4798 100.161 17.2558C100.337 17.0158 100.449 16.7038 100.497 16.3198C100.561 15.9198 100.593 15.4878 100.593 15.0238V10.0558C100.593 9.62376 100.561 9.23976 100.497 8.90376C100.433 8.55176 100.313 8.27176 100.137 8.06376C99.9614 7.85576 99.7054 7.75176 99.3694 7.75176C99.1134 7.75176 98.8574 7.81576 98.6014 7.94376C98.3614 8.05576 98.1454 8.19176 97.9534 8.35176V17.1118C98.1614 17.2558 98.3854 17.3758 98.6254 17.4718C98.8654 17.5518 99.1214 17.5918 99.3934 17.5918ZM30.3775 49.3278V46.7838C30.6015 46.7998 30.8095 46.8158 31.0015 46.8318C31.1935 46.8478 31.3775 46.8558 31.5535 46.8558C31.9055 46.8558 32.2175 46.8158 32.4895 46.7358C32.7775 46.6558 33.0175 46.5278 33.2095 46.3518C33.4175 46.1918 33.5695 45.9918 33.6655 45.7518C33.7775 45.5118 33.8335 45.2318 33.8335 44.9118C33.8335 44.6878 33.8175 44.4718 33.7855 44.2638C33.7695 44.0558 33.7455 43.8318 33.7135 43.5918L29.6095 26.2158H32.8975L34.5535 34.3518L35.4415 40.0158L36.1615 34.3518L37.6015 26.2158H40.9375L37.2895 43.3518C37.0495 44.5038 36.7855 45.4638 36.4975 46.2318C36.2255 47.0158 35.8895 47.6398 35.4895 48.1038C35.1055 48.5678 34.6255 48.9038 34.0495 49.1118C33.4895 49.3198 32.7935 49.4238 31.9615 49.4238C31.7695 49.4238 31.5375 49.4078 31.2655 49.3758C30.9935 49.3598 30.6975 49.3438 30.3775 49.3278ZM46.6467 45.8718C45.5747 45.8718 44.7107 45.6718 44.0547 45.2718C43.4147 44.8558 42.9427 44.2718 42.6387 43.5198C42.3507 42.7518 42.2067 41.8478 42.2067 40.8078V36.6318C42.2067 35.5598 42.3507 34.6478 42.6387 33.8958C42.9427 33.1438 43.4227 32.5678 44.0787 32.1678C44.7347 31.7678 45.5907 31.5678 46.6467 31.5678C47.6387 31.5678 48.4467 31.7278 49.0707 32.0478C49.7107 32.3518 50.1747 32.8238 50.4627 33.4638C50.7507 34.0878 50.8947 34.8798 50.8947 35.8398V36.9918H47.8227V35.7678C47.8227 35.2878 47.7827 34.9118 47.7027 34.6398C47.6387 34.3518 47.5187 34.1518 47.3427 34.0398C47.1667 33.9118 46.9347 33.8478 46.6467 33.8478C46.3587 33.8478 46.1267 33.9278 45.9507 34.0878C45.7747 34.2318 45.6467 34.4718 45.5667 34.8078C45.5027 35.1438 45.4707 35.6078 45.4707 36.1998V41.2878C45.4707 42.1838 45.5667 42.7918 45.7587 43.1118C45.9507 43.4158 46.2547 43.5678 46.6707 43.5678C46.9907 43.5678 47.2307 43.4958 47.3907 43.3518C47.5667 43.2078 47.6787 42.9998 47.7267 42.7278C47.7907 42.4398 47.8227 42.0958 47.8227 41.6958V40.2078H50.8947V41.5278C50.8947 42.4558 50.7427 43.2478 50.4387 43.9038C50.1507 44.5598 49.6867 45.0558 49.0467 45.3918C48.4227 45.7118 47.6227 45.8718 46.6467 45.8718ZM53.041 45.6558V31.7838H55.705V40.1358L59.593 31.7838H62.137V45.6558H59.473V37.3038L55.657 45.6558H53.041ZM64.6425 45.6558V31.7838H67.9065V37.4478H68.5545L70.9065 31.7838H74.3625L71.5545 38.4078L74.4105 45.6558H71.0025L68.5545 39.3438H67.9065V45.6558H64.6425Z" fill="white"/>
</svg>
