<svg width="54" height="54" viewBox="0 0 54 54" fill="none" xmlns="http://www.w3.org/2000/svg">
<path d="M31.2509 23.0243C32.8717 24.1775 34.8562 24.8561 37 24.8561V21.6227C35.8034 21.3689 34.7441 20.7463 33.9476 19.8802C32.5843 19.0331 31.6021 17.6357 31.3141 16H28.3088V32.4069C28.3019 34.3196 26.743 35.8683 24.8206 35.8683C23.6878 35.8683 22.6813 35.3306 22.044 34.4976C20.9058 33.9257 20.1252 32.7513 20.1252 31.3952C20.1252 29.4772 21.6867 27.9221 23.6133 27.9221C23.9824 27.9221 24.3381 27.9793 24.6719 28.0847V24.816C20.5346 24.9012 17.2073 28.2672 17.2073 32.4069C17.2073 34.4735 18.0358 36.3469 19.3806 37.7157C20.5938 38.5268 22.0543 39 23.6257 39C27.8369 39 31.251 35.6005 31.251 31.4071L31.2509 23.0243Z" fill="#2E8AC9"/>
<path d="M37 21.6227V20.7485C35.9209 20.7502 34.8631 20.4493 33.9476 19.8802C34.758 20.7637 35.8252 21.3728 37 21.6227ZM31.3141 16C31.2866 15.8437 31.2655 15.6863 31.2508 15.5283V15H27.1012V31.407C27.0946 33.3196 25.5357 34.8683 23.6132 34.8683C23.0682 34.8691 22.5307 34.742 22.044 34.4976C22.6813 35.3306 23.6878 35.8683 24.8206 35.8683C26.743 35.8683 28.3019 34.3196 28.3088 32.4069V16H31.3141ZM24.6719 24.816L24.672 23.8853C24.3253 23.838 23.9757 23.8144 23.6258 23.8146C19.414 23.8146 16 27.2139 16 31.407C16 34.0359 17.3417 36.3529 19.3806 37.7157C18.0358 36.3469 17.2073 34.4735 17.2073 32.4069C17.2073 28.2672 20.5346 24.9012 24.6719 24.816Z" fill="#2E8AC9"/>
</svg>
