<svg width="54" height="54" viewBox="0 0 54 54" fill="none" xmlns="http://www.w3.org/2000/svg">
<path fill-rule="evenodd" clip-rule="evenodd" d="M31.5547 13.724C31.4685 13.8586 31.3887 13.9974 31.3155 14.1397L30.9151 14.8786L27.4109 16.6403L27.2027 16.7455C25.1872 17.8038 23.7667 19.791 23.3403 22.1104C23.3279 22.1738 23.3167 22.2409 23.2981 22.3512L23.2969 22.3601L23.2597 22.5793C22.9267 24.476 22.0181 26.2173 20.6629 27.5564L19.6663 28.5576C19.0416 29.1863 18.5383 29.6932 18.1615 30.1292C17.7773 30.5728 17.4674 31.0088 17.2814 31.5081C17.0366 32.1679 16.9496 32.878 17.0279 33.5791C17.1062 34.2803 17.3474 34.9521 17.7314 35.5385C18.0239 35.9821 18.4231 36.3319 18.8953 36.6715C19.3577 37.0036 19.9601 37.3749 20.705 37.8337L21.5888 38.3787C22.3338 38.8375 22.9362 39.2076 23.4382 39.4687C23.9489 39.7348 24.4373 39.9338 24.9566 39.9832C25.6381 40.0465 26.324 39.9301 26.949 39.6452C27.5739 39.3603 28.1171 38.9164 28.5265 38.3559C28.8413 37.9313 29.0384 37.4282 29.2058 36.8553C29.3706 36.2913 29.5293 35.5752 29.7264 34.6817L30.0424 33.2609L30.0908 33.0442C30.5204 31.1732 31.5168 29.4886 32.938 28.2306L32.9454 28.2243L33.1202 28.0646C34.8035 26.4968 35.6935 24.194 35.5472 21.8366L35.5286 21.5933L35.2039 17.4527L35.6439 16.639C35.7158 16.5085 35.7927 16.3653 35.8497 16.236C35.9154 16.089 35.9873 15.8887 35.9984 15.6441C36.0129 15.318 35.9284 14.9954 35.7567 14.7202C35.6452 14.5495 35.5036 14.4017 35.339 14.2842C35.2174 14.197 35.0921 14.1153 34.9634 14.0396L33.9532 13.4173C33.8198 13.3326 33.6834 13.2531 33.5441 13.179C33.3554 13.0801 33.1494 13.0202 32.938 13.0029C32.6037 12.9823 32.2719 13.073 31.9922 13.2614C31.8176 13.3846 31.6685 13.5418 31.5534 13.724M31.541 16.6809L33.3656 17.805L33.673 21.7352C33.6792 21.8164 33.6842 21.8658 33.6854 21.9051L32.3777 22.3499C31.9943 22.481 31.5848 22.5116 31.1868 22.439C30.7888 22.3664 30.4149 22.1928 30.0995 21.9342C29.461 21.4112 28.6892 21.0863 27.8757 20.9983C27.0621 20.9102 26.2409 21.0626 25.5095 21.4374L25.4351 21.4754C25.9319 20.0958 26.9382 18.9704 28.2377 18.3411L31.541 16.6809Z" fill="white"/>
</svg>
