<svg width="54" height="54" viewBox="0 0 54 54" fill="none" xmlns="http://www.w3.org/2000/svg">
<path d="M31 15C35.4183 15 39 18.5817 39 23V31C39 35.4183 35.4183 39 31 39H23C18.5817 39 15 35.4183 15 31V23C15 18.5817 18.5817 15 23 15H31ZM27 21.1934C23.7933 21.1935 21.1934 23.7933 21.1934 27L21.2012 27.2988C21.3519 30.2676 23.7324 32.6483 26.7012 32.7988L27 32.8066C30.1064 32.8065 32.6431 30.3665 32.7988 27.2988L32.8066 27C32.8066 23.8935 30.3667 21.3568 27.2988 21.2012L27 21.1934ZM27 24.1934C28.5499 24.1935 29.8066 25.4501 29.8066 27C29.8064 28.5497 28.5497 29.8065 27 29.8066C25.4503 29.8065 24.1936 28.5497 24.1934 27C24.1934 25.4501 25.4501 24.1935 27 24.1934ZM33.582 18.0967C32.7269 18.0967 32.0332 18.7904 32.0332 19.6455C32.0332 20.5007 32.7269 21.1943 33.582 21.1943C34.437 21.1941 35.1299 20.5005 35.1299 19.6455C35.1299 18.7905 34.437 18.0969 33.582 18.0967Z" fill="#2E8AC9"/>
</svg>
